<svg width="64" height="64" viewBox="0 0 192 192" fill="none" xmlns="http://www.w3.org/2000/svg">
  <rect width="192" height="192" rx="54" fill="url(#bg)"/>
  <rect x="14" y="14" width="164" height="164" rx="44" fill="url(#glass)" stroke="white" stroke-opacity="0.34" stroke-width="2"/>
  <circle cx="96" cy="96" r="24" fill="white" fill-opacity="0.92"/>
  <circle cx="96" cy="96" r="12" fill="url(#core)"/>
  <path d="M63 79C72 59 100 51 120 65C127 70 132 76 136 84" stroke="white" stroke-width="13" stroke-linecap="round"/>
  <path d="M133 60L139 86L113 82" stroke="white" stroke-width="13" stroke-linecap="round" stroke-linejoin="round"/>
  <path d="M129 113C120 133 92 141 72 127C65 122 60 116 56 108" stroke="white" stroke-width="13" stroke-linecap="round"/>
  <path d="M59 132L53 106L79 110" stroke="white" stroke-width="13" stroke-linecap="round" stroke-linejoin="round"/>
  <circle cx="58" cy="58" r="16" fill="white" fill-opacity="0.18"/>
  <circle cx="137" cy="136" r="20" fill="white" fill-opacity="0.14"/>
  <defs>
    <linearGradient id="bg" x1="22" y1="18" x2="168" y2="176" gradientUnits="userSpaceOnUse">
      <stop stop-color="#0FBAA5"/>
      <stop offset="0.55" stop-color="#2563EB"/>
      <stop offset="1" stop-color="#6D5DFC"/>
    </linearGradient>
    <linearGradient id="glass" x1="35" y1="22" x2="152" y2="164" gradientUnits="userSpaceOnUse">
      <stop stop-color="white" stop-opacity="0.28"/>
      <stop offset="1" stop-color="white" stop-opacity="0.06"/>
    </linearGradient>
    <linearGradient id="core" x1="84" y1="84" x2="108" y2="108" gradientUnits="userSpaceOnUse">
      <stop stop-color="#0FBAA5"/>
      <stop offset="1" stop-color="#2563EB"/>
    </linearGradient>
  </defs>
</svg>
